<mxfile host="app.diagrams.net" agent="Mozilla/5.0 (Macintosh; Intel Mac OS X 10_15_7) AppleWebKit/537.36 (KHTML, like Gecko) Chrome/127.0.0.0 Safari/537.36 Edg/127.0.0.0" version="25.0.3">
  <diagram name="第 1 页" id="tbQ9g2cLwWkqq9351bcL">
    <mxGraphModel dx="1430" dy="2574" grid="1" gridSize="10" guides="1" tooltips="1" connect="1" arrows="1" fold="1" page="1" pageScale="1" pageWidth="1169" pageHeight="1654" math="0" shadow="0">
      <root>
        <mxCell id="0" />
        <mxCell id="1" parent="0" />
        <mxCell id="3YJcN6WZeWh3C3q04L2r-1" value="normal inst" style="rounded=0;whiteSpace=wrap;html=1;fillColor=#f5f5f5;fontColor=#333333;strokeColor=#666666;" vertex="1" parent="1">
          <mxGeometry x="450" y="450" width="60" height="60" as="geometry" />
        </mxCell>
        <mxCell id="3YJcN6WZeWh3C3q04L2r-2" value="beq1label1&lt;div&gt;占位: 0000 0000&lt;/div&gt;&lt;div&gt;label.position_: 8&lt;/div&gt;" style="rounded=0;whiteSpace=wrap;html=1;fillColor=#ffe6cc;strokeColor=#d79b00;" vertex="1" parent="1">
          <mxGeometry x="210" y="450" width="120" height="60" as="geometry" />
        </mxCell>
        <mxCell id="3YJcN6WZeWh3C3q04L2r-3" value="beq2 label2&lt;div&gt;占位: 0000 0000&lt;/div&gt;&lt;div&gt;pos: 1+8 = 9&lt;/div&gt;" style="rounded=0;whiteSpace=wrap;html=1;fillColor=#d5e8d4;strokeColor=#82b366;" vertex="1" parent="1">
          <mxGeometry x="330" y="450" width="120" height="60" as="geometry" />
        </mxCell>
        <mxCell id="3YJcN6WZeWh3C3q04L2r-26" style="edgeStyle=orthogonalEdgeStyle;rounded=0;orthogonalLoop=1;jettySize=auto;html=1;exitX=0.5;exitY=1;exitDx=0;exitDy=0;entryX=0.5;entryY=1;entryDx=0;entryDy=0;" edge="1" parent="1" source="3YJcN6WZeWh3C3q04L2r-4" target="3YJcN6WZeWh3C3q04L2r-2">
          <mxGeometry relative="1" as="geometry">
            <mxPoint x="260" y="560" as="targetPoint" />
          </mxGeometry>
        </mxCell>
        <mxCell id="3YJcN6WZeWh3C3q04L2r-4" value="beq3 label1&lt;div&gt;占位: 0000 0008&lt;/div&gt;&lt;div&gt;pos: 10&lt;/div&gt;" style="rounded=0;whiteSpace=wrap;html=1;fillColor=#ffe6cc;strokeColor=#d79b00;" vertex="1" parent="1">
          <mxGeometry x="510" y="450" width="120" height="60" as="geometry" />
        </mxCell>
        <mxCell id="3YJcN6WZeWh3C3q04L2r-24" style="edgeStyle=orthogonalEdgeStyle;rounded=0;orthogonalLoop=1;jettySize=auto;html=1;exitX=0.5;exitY=0;exitDx=0;exitDy=0;entryX=0.5;entryY=0;entryDx=0;entryDy=0;" edge="1" parent="1" source="3YJcN6WZeWh3C3q04L2r-5" target="3YJcN6WZeWh3C3q04L2r-4">
          <mxGeometry relative="1" as="geometry" />
        </mxCell>
        <mxCell id="3YJcN6WZeWh3C3q04L2r-5" value="beq4 label1&lt;div&gt;占位: 0000 000a&lt;/div&gt;&lt;div&gt;pos: 11&lt;/div&gt;" style="rounded=0;whiteSpace=wrap;html=1;fillColor=#ffe6cc;strokeColor=#d79b00;" vertex="1" parent="1">
          <mxGeometry x="630" y="450" width="120" height="60" as="geometry" />
        </mxCell>
        <mxCell id="3YJcN6WZeWh3C3q04L2r-6" value="normal inst" style="rounded=0;whiteSpace=wrap;html=1;fillColor=#f5f5f5;fontColor=#333333;strokeColor=#666666;" vertex="1" parent="1">
          <mxGeometry x="750" y="450" width="50" height="60" as="geometry" />
        </mxCell>
        <mxCell id="3YJcN6WZeWh3C3q04L2r-23" style="edgeStyle=orthogonalEdgeStyle;rounded=0;orthogonalLoop=1;jettySize=auto;html=1;exitX=0.5;exitY=0;exitDx=0;exitDy=0;entryX=0.5;entryY=0;entryDx=0;entryDy=0;" edge="1" parent="1" source="3YJcN6WZeWh3C3q04L2r-7" target="3YJcN6WZeWh3C3q04L2r-3">
          <mxGeometry relative="1" as="geometry">
            <Array as="points">
              <mxPoint x="860" y="410" />
              <mxPoint x="390" y="410" />
            </Array>
          </mxGeometry>
        </mxCell>
        <mxCell id="3YJcN6WZeWh3C3q04L2r-7" value="beq5 label2&lt;div&gt;占位: 0000 0009&lt;/div&gt;&lt;div&gt;pos: 12&lt;/div&gt;" style="rounded=0;whiteSpace=wrap;html=1;fillColor=#d5e8d4;strokeColor=#82b366;" vertex="1" parent="1">
          <mxGeometry x="800" y="450" width="120" height="60" as="geometry" />
        </mxCell>
        <mxCell id="3YJcN6WZeWh3C3q04L2r-8" value="normal inst" style="rounded=0;whiteSpace=wrap;html=1;fillColor=#f5f5f5;fontColor=#333333;strokeColor=#666666;" vertex="1" parent="1">
          <mxGeometry x="920" y="450" width="60" height="60" as="geometry" />
        </mxCell>
        <mxCell id="3YJcN6WZeWh3C3q04L2r-25" style="edgeStyle=orthogonalEdgeStyle;rounded=0;orthogonalLoop=1;jettySize=auto;html=1;exitX=0.5;exitY=1;exitDx=0;exitDy=0;entryX=0.5;entryY=1;entryDx=0;entryDy=0;" edge="1" parent="1" source="3YJcN6WZeWh3C3q04L2r-9" target="3YJcN6WZeWh3C3q04L2r-5">
          <mxGeometry relative="1" as="geometry">
            <mxPoint x="680" y="570" as="targetPoint" />
            <Array as="points">
              <mxPoint x="1040" y="550" />
              <mxPoint x="690" y="550" />
            </Array>
          </mxGeometry>
        </mxCell>
        <mxCell id="3YJcN6WZeWh3C3q04L2r-9" value="beq6 label1&lt;div&gt;占位: 0000 000b&lt;/div&gt;&lt;div&gt;pos: 13&lt;/div&gt;" style="rounded=0;whiteSpace=wrap;html=1;fillColor=#ffe6cc;strokeColor=#d79b00;" vertex="1" parent="1">
          <mxGeometry x="980" y="450" width="120" height="60" as="geometry" />
        </mxCell>
        <mxCell id="3YJcN6WZeWh3C3q04L2r-10" value="normal inst" style="rounded=0;whiteSpace=wrap;html=1;fillColor=#f5f5f5;fontColor=#333333;strokeColor=#666666;" vertex="1" parent="1">
          <mxGeometry x="1100" y="450" width="60" height="60" as="geometry" />
        </mxCell>
        <mxCell id="3YJcN6WZeWh3C3q04L2r-21" style="edgeStyle=orthogonalEdgeStyle;rounded=0;orthogonalLoop=1;jettySize=auto;html=1;exitX=0.25;exitY=0;exitDx=0;exitDy=0;entryX=0.5;entryY=0;entryDx=0;entryDy=0;" edge="1" parent="1" source="3YJcN6WZeWh3C3q04L2r-11" target="3YJcN6WZeWh3C3q04L2r-9">
          <mxGeometry relative="1" as="geometry" />
        </mxCell>
        <mxCell id="3YJcN6WZeWh3C3q04L2r-11" value="label1: inst&lt;div&gt;pos_before:&lt;/div&gt;&lt;div&gt;prev_link_br_pos(13)&lt;/div&gt;" style="rounded=0;whiteSpace=wrap;html=1;fillColor=#dae8fc;strokeColor=#6c8ebf;" vertex="1" parent="1">
          <mxGeometry x="1160" y="450" width="120" height="60" as="geometry" />
        </mxCell>
        <mxCell id="3YJcN6WZeWh3C3q04L2r-22" style="edgeStyle=orthogonalEdgeStyle;rounded=0;orthogonalLoop=1;jettySize=auto;html=1;exitX=0.25;exitY=1;exitDx=0;exitDy=0;entryX=0.5;entryY=1;entryDx=0;entryDy=0;" edge="1" parent="1" source="3YJcN6WZeWh3C3q04L2r-12" target="3YJcN6WZeWh3C3q04L2r-7">
          <mxGeometry relative="1" as="geometry">
            <mxPoint x="870" y="560" as="targetPoint" />
          </mxGeometry>
        </mxCell>
        <mxCell id="3YJcN6WZeWh3C3q04L2r-12" value="label2: inst&lt;div&gt;pos_before:&lt;/div&gt;&lt;div&gt;-addr(2-prev_br)-8&lt;/div&gt;" style="rounded=0;whiteSpace=wrap;html=1;fillColor=#dae8fc;strokeColor=#6c8ebf;" vertex="1" parent="1">
          <mxGeometry x="1280" y="450" width="120" height="60" as="geometry" />
        </mxCell>
        <mxCell id="3YJcN6WZeWh3C3q04L2r-20" style="edgeStyle=orthogonalEdgeStyle;rounded=0;orthogonalLoop=1;jettySize=auto;html=1;exitX=0.5;exitY=0;exitDx=0;exitDy=0;entryX=0.75;entryY=0;entryDx=0;entryDy=0;" edge="1" parent="1" source="3YJcN6WZeWh3C3q04L2r-13" target="3YJcN6WZeWh3C3q04L2r-11">
          <mxGeometry relative="1" as="geometry" />
        </mxCell>
        <mxCell id="3YJcN6WZeWh3C3q04L2r-13" value="beq7 label1&lt;div&gt;占位: Nop()&lt;/div&gt;&lt;div&gt;pos: pos1_after&lt;/div&gt;" style="rounded=0;whiteSpace=wrap;html=1;fillColor=#ffe6cc;strokeColor=#d79b00;" vertex="1" parent="1">
          <mxGeometry x="1400" y="450" width="120" height="60" as="geometry" />
        </mxCell>
        <mxCell id="3YJcN6WZeWh3C3q04L2r-19" style="edgeStyle=orthogonalEdgeStyle;rounded=0;orthogonalLoop=1;jettySize=auto;html=1;exitX=0.75;exitY=1;exitDx=0;exitDy=0;entryX=0.75;entryY=1;entryDx=0;entryDy=0;" edge="1" parent="1" source="3YJcN6WZeWh3C3q04L2r-14" target="3YJcN6WZeWh3C3q04L2r-12">
          <mxGeometry relative="1" as="geometry">
            <mxPoint x="1371" y="560" as="targetPoint" />
          </mxGeometry>
        </mxCell>
        <mxCell id="3YJcN6WZeWh3C3q04L2r-14" value="beq8 label2&lt;div&gt;占位: Nop()&lt;/div&gt;&lt;div&gt;pos: pos2_after&lt;/div&gt;" style="rounded=0;whiteSpace=wrap;html=1;fillColor=#d5e8d4;strokeColor=#82b366;" vertex="1" parent="1">
          <mxGeometry x="1520" y="450" width="120" height="60" as="geometry" />
        </mxCell>
        <mxCell id="3YJcN6WZeWh3C3q04L2r-28" value="buffer_" style="whiteSpace=wrap;html=1;" vertex="1" parent="1">
          <mxGeometry x="90" y="450" width="120" height="60" as="geometry" />
        </mxCell>
        <mxCell id="3YJcN6WZeWh3C3q04L2r-29" value="branches_" style="whiteSpace=wrap;html=1;" vertex="1" parent="1">
          <mxGeometry x="90" y="200" width="120" height="60" as="geometry" />
        </mxCell>
        <mxCell id="3YJcN6WZeWh3C3q04L2r-30" value="branch_id: 0&lt;div&gt;beq1&lt;/div&gt;&lt;div&gt;location: 1&lt;/div&gt;" style="rounded=0;whiteSpace=wrap;html=1;fillColor=#ffe6cc;strokeColor=#d79b00;" vertex="1" parent="1">
          <mxGeometry x="210" y="200" width="120" height="60" as="geometry" />
        </mxCell>
        <mxCell id="3YJcN6WZeWh3C3q04L2r-40" style="edgeStyle=orthogonalEdgeStyle;rounded=0;orthogonalLoop=1;jettySize=auto;html=1;exitX=0.5;exitY=1;exitDx=0;exitDy=0;entryX=0.5;entryY=0;entryDx=0;entryDy=0;dashed=1;" edge="1" parent="1" source="3YJcN6WZeWh3C3q04L2r-31" target="3YJcN6WZeWh3C3q04L2r-3">
          <mxGeometry relative="1" as="geometry" />
        </mxCell>
        <mxCell id="3YJcN6WZeWh3C3q04L2r-31" value="id: 1&lt;div&gt;beq2&lt;/div&gt;&lt;div&gt;location: 2&lt;/div&gt;" style="rounded=0;whiteSpace=wrap;html=1;fillColor=#d5e8d4;strokeColor=#82b366;" vertex="1" parent="1">
          <mxGeometry x="330" y="200" width="120" height="60" as="geometry" />
        </mxCell>
        <mxCell id="3YJcN6WZeWh3C3q04L2r-39" style="rounded=0;orthogonalLoop=1;jettySize=auto;html=1;exitX=0.5;exitY=1;exitDx=0;exitDy=0;entryX=0.25;entryY=0;entryDx=0;entryDy=0;dashed=1;" edge="1" parent="1" source="3YJcN6WZeWh3C3q04L2r-32" target="3YJcN6WZeWh3C3q04L2r-4">
          <mxGeometry relative="1" as="geometry">
            <mxPoint x="600" y="390" as="targetPoint" />
          </mxGeometry>
        </mxCell>
        <mxCell id="3YJcN6WZeWh3C3q04L2r-32" value="id: 2&lt;div&gt;beq3&lt;/div&gt;&lt;div&gt;location: 4&lt;/div&gt;" style="rounded=0;whiteSpace=wrap;html=1;fillColor=#ffe6cc;strokeColor=#d79b00;" vertex="1" parent="1">
          <mxGeometry x="450" y="200" width="120" height="60" as="geometry" />
        </mxCell>
        <mxCell id="3YJcN6WZeWh3C3q04L2r-41" style="rounded=0;orthogonalLoop=1;jettySize=auto;html=1;exitX=0.5;exitY=1;exitDx=0;exitDy=0;entryX=0.25;entryY=0;entryDx=0;entryDy=0;dashed=1;" edge="1" parent="1" source="3YJcN6WZeWh3C3q04L2r-33" target="3YJcN6WZeWh3C3q04L2r-5">
          <mxGeometry relative="1" as="geometry" />
        </mxCell>
        <mxCell id="3YJcN6WZeWh3C3q04L2r-33" value="id: 3&lt;div&gt;beq4&lt;/div&gt;&lt;div&gt;location: 5&lt;/div&gt;" style="rounded=0;whiteSpace=wrap;html=1;fillColor=#ffe6cc;strokeColor=#d79b00;" vertex="1" parent="1">
          <mxGeometry x="570" y="200" width="120" height="60" as="geometry" />
        </mxCell>
        <mxCell id="3YJcN6WZeWh3C3q04L2r-42" style="rounded=0;orthogonalLoop=1;jettySize=auto;html=1;exitX=0.5;exitY=1;exitDx=0;exitDy=0;entryX=0.25;entryY=0;entryDx=0;entryDy=0;dashed=1;" edge="1" parent="1" source="3YJcN6WZeWh3C3q04L2r-34" target="3YJcN6WZeWh3C3q04L2r-7">
          <mxGeometry relative="1" as="geometry" />
        </mxCell>
        <mxCell id="3YJcN6WZeWh3C3q04L2r-34" value="id: 4&lt;div&gt;beq5&lt;/div&gt;&lt;div&gt;location: 7&lt;/div&gt;" style="rounded=0;whiteSpace=wrap;html=1;fillColor=#d5e8d4;strokeColor=#82b366;" vertex="1" parent="1">
          <mxGeometry x="690" y="200" width="120" height="60" as="geometry" />
        </mxCell>
        <mxCell id="3YJcN6WZeWh3C3q04L2r-43" style="rounded=0;orthogonalLoop=1;jettySize=auto;html=1;exitX=0.5;exitY=1;exitDx=0;exitDy=0;entryX=0.25;entryY=0;entryDx=0;entryDy=0;dashed=1;" edge="1" parent="1" source="3YJcN6WZeWh3C3q04L2r-35" target="3YJcN6WZeWh3C3q04L2r-9">
          <mxGeometry relative="1" as="geometry" />
        </mxCell>
        <mxCell id="3YJcN6WZeWh3C3q04L2r-35" value="id: 5&lt;div&gt;beq6&lt;/div&gt;&lt;div&gt;location: 9&lt;/div&gt;" style="rounded=0;whiteSpace=wrap;html=1;fillColor=#ffe6cc;strokeColor=#d79b00;" vertex="1" parent="1">
          <mxGeometry x="810" y="200" width="120" height="60" as="geometry" />
        </mxCell>
        <mxCell id="3YJcN6WZeWh3C3q04L2r-44" style="rounded=0;orthogonalLoop=1;jettySize=auto;html=1;exitX=0.5;exitY=1;exitDx=0;exitDy=0;entryX=0.25;entryY=0;entryDx=0;entryDy=0;dashed=1;" edge="1" parent="1" source="3YJcN6WZeWh3C3q04L2r-36" target="3YJcN6WZeWh3C3q04L2r-13">
          <mxGeometry relative="1" as="geometry" />
        </mxCell>
        <mxCell id="3YJcN6WZeWh3C3q04L2r-36" value="id: 6&lt;div&gt;beq7&lt;/div&gt;&lt;div&gt;location: 13&lt;/div&gt;" style="rounded=0;whiteSpace=wrap;html=1;fillColor=#ffe6cc;strokeColor=#d79b00;" vertex="1" parent="1">
          <mxGeometry x="930" y="200" width="120" height="60" as="geometry" />
        </mxCell>
        <mxCell id="3YJcN6WZeWh3C3q04L2r-45" style="rounded=0;orthogonalLoop=1;jettySize=auto;html=1;exitX=0.5;exitY=1;exitDx=0;exitDy=0;entryX=0.25;entryY=0;entryDx=0;entryDy=0;dashed=1;" edge="1" parent="1" source="3YJcN6WZeWh3C3q04L2r-37" target="3YJcN6WZeWh3C3q04L2r-14">
          <mxGeometry relative="1" as="geometry" />
        </mxCell>
        <mxCell id="3YJcN6WZeWh3C3q04L2r-37" value="id: 7&lt;div&gt;&lt;span style=&quot;background-color: initial;&quot;&gt;beq8&lt;/span&gt;&lt;div&gt;location: 14&lt;/div&gt;&lt;/div&gt;" style="rounded=0;whiteSpace=wrap;html=1;fillColor=#d5e8d4;strokeColor=#82b366;" vertex="1" parent="1">
          <mxGeometry x="1050" y="200" width="120" height="60" as="geometry" />
        </mxCell>
        <mxCell id="3YJcN6WZeWh3C3q04L2r-38" value="" style="endArrow=classic;html=1;rounded=0;exitX=0.5;exitY=1;exitDx=0;exitDy=0;entryX=0.5;entryY=0;entryDx=0;entryDy=0;dashed=1;" edge="1" parent="1" source="3YJcN6WZeWh3C3q04L2r-30" target="3YJcN6WZeWh3C3q04L2r-2">
          <mxGeometry width="50" height="50" relative="1" as="geometry">
            <mxPoint x="500" y="420" as="sourcePoint" />
            <mxPoint x="550" y="370" as="targetPoint" />
          </mxGeometry>
        </mxCell>
        <mxCell id="3YJcN6WZeWh3C3q04L2r-48" value="beq a0, a1, 1f // beq1" style="rounded=0;whiteSpace=wrap;html=1;fillColor=#ffe6cc;strokeColor=#d79b00;" vertex="1" parent="1">
          <mxGeometry x="1340" y="-40" width="120" height="30" as="geometry" />
        </mxCell>
        <mxCell id="3YJcN6WZeWh3C3q04L2r-49" value="beq a2, a3, 2f // beq2" style="rounded=0;whiteSpace=wrap;html=1;fillColor=#d5e8d4;strokeColor=#82b366;" vertex="1" parent="1">
          <mxGeometry x="1340" y="-10" width="120" height="30" as="geometry" />
        </mxCell>
        <mxCell id="3YJcN6WZeWh3C3q04L2r-50" value="nop" style="rounded=0;whiteSpace=wrap;html=1;fillColor=#f5f5f5;fontColor=#333333;strokeColor=#666666;" vertex="1" parent="1">
          <mxGeometry x="1340" y="20" width="120" height="30" as="geometry" />
        </mxCell>
        <mxCell id="3YJcN6WZeWh3C3q04L2r-52" value="beq a4, a5, 1f // beq3" style="rounded=0;whiteSpace=wrap;html=1;fillColor=#ffe6cc;strokeColor=#d79b00;" vertex="1" parent="1">
          <mxGeometry x="1340" y="50" width="120" height="30" as="geometry" />
        </mxCell>
        <mxCell id="3YJcN6WZeWh3C3q04L2r-53" value="beq a0, a1, 1f // beq4" style="rounded=0;whiteSpace=wrap;html=1;fillColor=#ffe6cc;strokeColor=#d79b00;" vertex="1" parent="1">
          <mxGeometry x="1340" y="80" width="120" height="30" as="geometry" />
        </mxCell>
        <mxCell id="3YJcN6WZeWh3C3q04L2r-54" value="nop" style="rounded=0;whiteSpace=wrap;html=1;fillColor=#f5f5f5;fontColor=#333333;strokeColor=#666666;" vertex="1" parent="1">
          <mxGeometry x="1340" y="110" width="120" height="30" as="geometry" />
        </mxCell>
        <mxCell id="3YJcN6WZeWh3C3q04L2r-55" value="beq a2, a3, 2f // beq5" style="rounded=0;whiteSpace=wrap;html=1;fillColor=#d5e8d4;strokeColor=#82b366;" vertex="1" parent="1">
          <mxGeometry x="1340" y="140" width="120" height="30" as="geometry" />
        </mxCell>
        <mxCell id="3YJcN6WZeWh3C3q04L2r-56" value="nop" style="rounded=0;whiteSpace=wrap;html=1;fillColor=#f5f5f5;fontColor=#333333;strokeColor=#666666;" vertex="1" parent="1">
          <mxGeometry x="1340" y="170" width="120" height="30" as="geometry" />
        </mxCell>
        <mxCell id="3YJcN6WZeWh3C3q04L2r-57" value="beq a2, a3, 2f // beq6" style="rounded=0;whiteSpace=wrap;html=1;fillColor=#d5e8d4;strokeColor=#82b366;" vertex="1" parent="1">
          <mxGeometry x="1340" y="200" width="120" height="30" as="geometry" />
        </mxCell>
        <mxCell id="3YJcN6WZeWh3C3q04L2r-58" value="nop" style="rounded=0;whiteSpace=wrap;html=1;fillColor=#f5f5f5;fontColor=#333333;strokeColor=#666666;" vertex="1" parent="1">
          <mxGeometry x="1340" y="230" width="120" height="30" as="geometry" />
        </mxCell>
        <mxCell id="3YJcN6WZeWh3C3q04L2r-59" value="label1" style="rounded=0;whiteSpace=wrap;html=1;fillColor=#dae8fc;strokeColor=#6c8ebf;" vertex="1" parent="1">
          <mxGeometry x="1340" y="260" width="120" height="30" as="geometry" />
        </mxCell>
        <mxCell id="3YJcN6WZeWh3C3q04L2r-60" value="label2" style="rounded=0;whiteSpace=wrap;html=1;fillColor=#dae8fc;strokeColor=#6c8ebf;" vertex="1" parent="1">
          <mxGeometry x="1340" y="290" width="120" height="30" as="geometry" />
        </mxCell>
        <mxCell id="3YJcN6WZeWh3C3q04L2r-61" value="beq a0, a1, 1b // beq7" style="rounded=0;whiteSpace=wrap;html=1;fillColor=#ffe6cc;strokeColor=#d79b00;" vertex="1" parent="1">
          <mxGeometry x="1340" y="320" width="120" height="30" as="geometry" />
        </mxCell>
        <mxCell id="3YJcN6WZeWh3C3q04L2r-62" value="beq a0, a1, 2b // beq8" style="rounded=0;whiteSpace=wrap;html=1;fillColor=#d5e8d4;strokeColor=#82b366;" vertex="1" parent="1">
          <mxGeometry x="1340" y="350" width="120" height="30" as="geometry" />
        </mxCell>
      </root>
    </mxGraphModel>
  </diagram>
</mxfile>
